<svg width="58" height="58" viewBox="0 0 58 58" fill="none" xmlns="http://www.w3.org/2000/svg">
<g clip-path="url(#clip0_10_51)">
<path d="M57.717 45.615L43.6409 9.36496C43.1405 8.07582 42.05 7.25 40.8497 7.25H31.0229L31.2696 9.87359C31.32 10.4083 30.9464 10.875 30.4681 10.875H27.5318C27.0535 10.875 26.68 10.4083 26.7303 9.87359L26.977 7.25H17.1502C15.949 7.25 14.8584 8.07582 14.358 9.36496L0.281915 45.615C-0.649509 48.0154 0.836741 50.75 3.07518 50.75H22.8959L23.934 39.6847C24.0206 38.7626 24.7114 38.0625 25.5361 38.0625H32.4639C33.2885 38.0625 33.9793 38.7626 34.0659 39.6847L35.1041 50.75H54.9248C57.1632 50.75 58.6495 48.0154 57.717 45.615ZM26.2208 15.3111C26.2417 15.0884 26.3352 14.8822 26.4832 14.7325C26.6312 14.5827 26.8233 14.4999 27.0223 14.5H30.9786C31.3905 14.5 31.7368 14.85 31.7801 15.3111L32.2433 20.2479C32.3189 21.0511 31.759 21.75 31.0421 21.75H26.9599C26.2419 21.75 25.6831 21.0511 25.7586 20.2479L26.2208 15.3111ZM31.7832 34.4375H26.2158C25.2592 34.4375 24.513 33.5052 24.6137 32.4347L25.1242 26.9972C25.2108 26.0751 25.9016 25.375 26.7263 25.375H31.2726C32.0973 25.375 32.7881 26.0751 32.8747 26.9972L33.3852 32.4347C33.4859 33.5052 32.7398 34.4375 31.7832 34.4375Z" fill="white"/>
</g>
<defs>
<clipPath id="clip0_10_51">
<rect width="58" height="58" fill="white"/>
</clipPath>
</defs>
</svg>
