<svg width="45" height="45" viewBox="0 0 45 45" fill="none" xmlns="http://www.w3.org/2000/svg">
<g id="fa-solid:road" clip-path="url(#clip0_173_59)">
<path id="Vector" d="M44.7805 35.3909L33.8594 7.26592C33.4711 6.26572 32.625 5.625 31.6937 5.625H24.0695L24.2609 7.66055C24.3 8.07539 24.0101 8.4375 23.639 8.4375H21.3609C20.9898 8.4375 20.7 8.07539 20.7391 7.66055L20.9305 5.625H13.3062C12.3742 5.625 11.5281 6.26572 11.1398 7.26592L0.21874 35.3909C-0.503917 37.2533 0.649208 39.375 2.38593 39.375H17.7641L18.5695 30.7898C18.6367 30.0744 19.1726 29.5312 19.8125 29.5312H25.1875C25.8273 29.5312 26.3633 30.0744 26.4305 30.7898L27.2359 39.375H42.6141C44.3508 39.375 45.5039 37.2533 44.7805 35.3909ZM20.3437 11.8793C20.36 11.7065 20.4325 11.5466 20.5473 11.4304C20.6621 11.3142 20.8112 11.2499 20.9656 11.25H24.0351C24.3547 11.25 24.6234 11.5216 24.657 11.8793L25.0164 15.7096C25.075 16.3327 24.6406 16.875 24.0844 16.875H20.9172C20.3601 16.875 19.9266 16.3327 19.9851 15.7096L20.3437 11.8793ZM24.6594 26.7188H20.3398C19.5976 26.7188 19.0187 25.9954 19.0969 25.1648L19.493 20.9461C19.5601 20.2307 20.0961 19.6875 20.7359 19.6875H24.2633C24.9031 19.6875 25.4391 20.2307 25.5062 20.9461L25.9023 25.1648C25.9805 25.9954 25.4016 26.7188 24.6594 26.7188Z" fill="#484848"/>
</g>
<defs>
<clipPath id="clip0_173_59">
<rect width="45" height="45" fill="white"/>
</clipPath>
</defs>
</svg>
