<svg width="79" height="79" viewBox="0 0 79 79" fill="none" xmlns="http://www.w3.org/2000/svg">
<path d="M50.9796 3.76743C51.1335 3.81898 51.2758 3.90038 51.3983 4.00699C51.5207 4.1136 51.6209 4.24331 51.6931 4.3887C51.7654 4.53409 51.8082 4.6923 51.8192 4.85427C51.8302 5.01624 51.8092 5.17879 51.7573 5.33262L48.9552 13.6523H67.1252C68.9027 13.6523 69.8655 15.7261 68.7052 17.0592L42.018 48.2148V66.2861H49.9921C52.4115 66.2861 54.3618 68.2364 54.3618 70.6557V72.9023H24.7368V70.6557C24.7368 68.2364 26.6871 66.2861 29.1065 66.2861H37.0559V48.2148L10.3687 17.0592C10.1132 16.758 9.94936 16.39 9.89639 15.9986C9.84341 15.6073 9.90355 15.209 10.0697 14.8507C10.2358 14.4925 10.5011 14.1892 10.834 13.9769C11.167 13.7645 11.5538 13.6519 11.9487 13.6523H46.3507L44.9509 17.8121C45.8002 17.9109 46.5902 18.1997 47.2765 18.6392L48.9552 13.6523H46.3507L49.4169 4.54262C49.5215 4.23273 49.7449 3.97704 50.0379 3.8317C50.3309 3.68636 50.6696 3.66324 50.9796 3.76743ZM49.3552 21.0586C49.7404 21.9314 49.8922 22.8894 49.7956 23.8386C49.6991 24.7879 49.3575 25.6957 48.8044 26.4731C48.2512 27.2505 47.5056 27.8708 46.6405 28.2732C45.7754 28.6756 44.8205 28.8463 43.8696 28.7685L40.7219 38.1176C40.6701 38.2713 40.5884 38.4132 40.4817 38.5354C40.375 38.6575 40.2452 38.7574 40.0999 38.8294C39.9546 38.9014 39.7965 38.944 39.6346 38.9549C39.4728 38.9658 39.3104 38.9447 39.1568 38.8928C39.0031 38.8409 38.8611 38.7593 38.739 38.6526C38.6169 38.5458 38.517 38.4161 38.445 38.2708C38.373 38.1254 38.3304 37.9673 38.3195 37.8055C38.3086 37.6437 38.3297 37.4813 38.3816 37.3276L41.5144 28.0204L41.5218 28.0254C40.3586 27.3413 39.4871 26.2538 39.0729 24.9694C38.6588 23.6851 38.7308 22.2933 39.2753 21.0586H21.162C19.6314 21.0586 18.792 22.8361 19.7548 24.0211L35.6536 43.4501C37.678 45.9189 41.4305 45.9189 43.4548 43.4501L59.3289 24.0211C60.2917 22.8361 59.4524 21.0586 57.9217 21.0586H49.3552ZM45.0324 22.9842C45.5261 21.5029 44.8596 19.9476 43.5264 19.5032C42.1933 19.0589 40.7121 19.8736 40.2183 21.3548C39.7246 22.8361 40.3911 24.3914 41.7243 24.8357C43.0574 25.2801 44.5386 24.4654 45.0324 22.9842Z" fill="white"/>
</svg>
