<svg width="79" height="79" viewBox="0 0 79 79" fill="none" xmlns="http://www.w3.org/2000/svg">
<path d="M39.5 6.5835C21.3201 6.5835 6.58328 21.3203 6.58328 39.5002C6.58328 57.68 21.3201 72.4168 39.5 72.4168C57.6798 72.4168 72.4166 57.68 72.4166 39.5002C72.4166 21.3203 57.6798 6.5835 39.5 6.5835ZM39.5 65.8335L46.0833 59.2502L49.375 55.9585V49.3752H42.7916V46.0835L39.5 42.7918H29.625V52.6668L36.2083 59.2502V65.6064C23.2391 63.977 13.1666 52.9038 13.1666 39.5002L16.4583 42.7918H23.0416V36.2085H29.625L39.5 26.3335V19.7502H32.9166L29.625 16.4585V15.1056C35.9556 12.526 43.0443 12.526 49.375 15.1056V19.7502L46.0833 23.0418V29.6252L49.375 32.9168L59.6779 22.6139C62.1826 25.6134 63.9884 29.1328 64.9643 32.9168H59.25L52.6666 39.5002V46.0835L55.9583 49.3752H62.5416L63.483 50.3166C59.3454 59.451 50.1617 65.8335 39.5 65.8335Z" fill="white"/>
</svg>
