<svg width="79" height="79" viewBox="0 0 79 79" fill="none" xmlns="http://www.w3.org/2000/svg">
<path fill-rule="evenodd" clip-rule="evenodd" d="M57.9597 69.1251L49.8161 25.708L13.1667 29.0392V58.5918C13.1667 62.2784 13.1667 64.1218 13.8843 65.5306C14.5154 66.7693 15.5225 67.7763 16.7612 68.4075C18.17 69.1251 20.0134 69.1251 23.7 69.1251H57.9597ZM44.4375 49.4738C44.4375 56.5773 37.3934 61.5674 34.3222 63.4075C33.8976 63.6622 33.4118 63.7967 32.9167 63.7967C32.4216 63.7967 31.9357 63.6622 31.5111 63.4075C28.44 61.5674 21.3959 56.5773 21.3959 49.4705C21.3959 42.5021 26.9785 37.8543 32.9167 37.8543C39.0622 37.8543 44.4375 42.5021 44.4375 49.4738Z" fill="white"/>
<path d="M13.8843 13.4695C13.1667 14.8783 13.1667 16.7217 13.1667 20.4083V22.4294L72.3838 17.0442C72.3212 15.4379 72.1534 14.3648 71.6991 13.4695C71.0679 12.2308 70.0609 11.2237 68.8222 10.5926C67.4134 9.875 65.57 9.875 61.8834 9.875H23.7C20.0134 9.875 18.17 9.875 16.7612 10.5926C15.5225 11.2237 14.5154 12.2308 13.8843 13.4695ZM72.4167 23.6539L56.4027 25.1088L64.6516 69.1085C66.6003 69.0658 67.8215 68.9176 68.8222 68.4074C70.0609 67.7763 71.0679 66.7692 71.6991 65.5305C72.4167 64.1217 72.4167 62.2783 72.4167 58.5917V23.6539Z" fill="white" fill-opacity="0.25"/>
<path d="M32.9167 52.6668C34.7346 52.6668 36.2083 51.1931 36.2083 49.3752C36.2083 47.5572 34.7346 46.0835 32.9167 46.0835C31.0987 46.0835 29.625 47.5572 29.625 49.3752C29.625 51.1931 31.0987 52.6668 32.9167 52.6668Z" fill="white"/>
</svg>
