<svg width="62" height="62" viewBox="0 0 62 62" fill="none" xmlns="http://www.w3.org/2000/svg">
<g id="line-md:instagram">
<path id="Vector" d="M43.3168 21.9639C45.4224 21.9639 47.1293 20.257 47.1293 18.1514C47.1293 16.0458 45.4224 14.3389 43.3168 14.3389C41.2112 14.3389 39.5043 16.0458 39.5043 18.1514C39.5043 20.257 41.2112 21.9639 43.3168 21.9639Z" fill="black"/>
<g id="Group">
<path id="Vector_2" d="M40.7751 7.98438C47.7901 7.98438 53.4835 13.6777 53.4835 20.6927V41.026C53.4835 48.041 47.7901 53.7344 40.7751 53.7344H20.4418C13.4268 53.7344 7.73346 48.041 7.73346 41.026V20.6927C7.73346 13.6777 13.4268 7.98438 20.4418 7.98438H30.6085H40.7751Z" stroke="black" stroke-width="5.08333" stroke-linecap="round" stroke-linejoin="round"/>
<path id="Vector_3" d="M30.6085 20.6924C36.2256 20.6924 40.7751 25.242 40.7751 30.859C40.7751 36.4761 36.2256 41.0257 30.6085 41.0257C24.9914 41.0257 20.4418 36.4761 20.4418 30.859C20.4418 25.242 24.9914 20.6924 30.6085 20.6924Z" stroke="black" stroke-width="5.08333" stroke-linecap="round" stroke-linejoin="round"/>
</g>
</g>
</svg>
