<svg width="58" height="58" viewBox="0 0 58 58" fill="none" xmlns="http://www.w3.org/2000/svg">
<g id="mdi:location">
<path id="Vector" d="M29 27.7916C27.3976 27.7916 25.8609 27.1551 24.7279 26.022C23.5949 24.889 22.9583 23.3523 22.9583 21.7499C22.9583 20.1476 23.5949 18.6108 24.7279 17.4778C25.8609 16.3448 27.3976 15.7083 29 15.7083C30.6023 15.7083 32.1391 16.3448 33.2721 17.4778C34.4051 18.6108 35.0417 20.1476 35.0417 21.7499C35.0417 22.5433 34.8854 23.329 34.5818 24.062C34.2781 24.795 33.8331 25.461 33.2721 26.022C32.7111 26.583 32.045 27.0281 31.312 27.3317C30.579 27.6353 29.7934 27.7916 29 27.7916ZM29 4.83325C24.5134 4.83325 20.2106 6.61554 17.0381 9.78803C13.8656 12.9605 12.0833 17.2633 12.0833 21.7499C12.0833 34.4374 29 53.1666 29 53.1666C29 53.1666 45.9167 34.4374 45.9167 21.7499C45.9167 17.2633 44.1344 12.9605 40.9619 9.78803C37.7894 6.61554 33.4866 4.83325 29 4.83325Z" fill="#484848"/>
</g>
</svg>
