<svg width="58" height="58" viewBox="0 0 58 58" fill="none" xmlns="http://www.w3.org/2000/svg">
<path d="M29 27.7917C27.3977 27.7917 25.8609 27.1552 24.7279 26.0221C23.5949 24.8891 22.9583 23.3524 22.9583 21.75C22.9583 20.1477 23.5949 18.611 24.7279 17.4779C25.8609 16.3449 27.3977 15.7084 29 15.7084C30.6024 15.7084 32.1391 16.3449 33.2721 17.4779C34.4051 18.611 35.0417 20.1477 35.0417 21.75C35.0417 22.5434 34.8854 23.3291 34.5818 24.0621C34.2782 24.7951 33.8331 25.4611 33.2721 26.0221C32.7111 26.5832 32.0451 27.0282 31.3121 27.3318C30.579 27.6354 29.7934 27.7917 29 27.7917ZM29 4.83337C24.5134 4.83337 20.2106 6.61566 17.0381 9.78815C13.8656 12.9606 12.0833 17.2635 12.0833 21.75C12.0833 34.4375 29 53.1667 29 53.1667C29 53.1667 45.9167 34.4375 45.9167 21.75C45.9167 17.2635 44.1344 12.9606 40.9619 9.78815C37.7894 6.61566 33.4866 4.83337 29 4.83337Z" fill="white"/>
</svg>
