<svg width="69" height="69" viewBox="0 0 69 69" fill="none" xmlns="http://www.w3.org/2000/svg">
<g id="mdi:naira">
<path id="Vector" d="M11.5 25.875H17.25V8.625H23L32.8325 25.875H46V8.625H51.75V25.875H57.5V31.625H51.75V37.375H57.5V43.125H51.75V60.375H46L36.1387 43.125H23V60.375H17.25V43.125H11.5V37.375H17.25V31.625H11.5V25.875ZM23 25.875H26.2488L23 20.2113V25.875ZM23 31.625V37.375H32.8325L29.555 31.625H23ZM46 48.875V43.125H42.6938L46 48.875ZM36.11 31.625L39.4163 37.375H46V31.625H36.11Z" fill="white"/>
</g>
</svg>
