<svg width="62" height="62" viewBox="0 0 62 62" fill="none" xmlns="http://www.w3.org/2000/svg">
<g id="mingcute:facebook-line">
<g id="Group">
<path id="Vector" fill-rule="evenodd" clip-rule="evenodd" d="M10.2751 30.86C10.2755 26.947 11.4049 23.1172 13.5279 19.8302C15.6509 16.5431 18.6772 13.9385 22.2438 12.3288C25.8104 10.7191 29.7657 10.1726 33.6351 10.7551C37.5046 11.3376 41.1237 13.0242 44.0584 15.6125C46.993 18.2009 49.1185 21.5811 50.1797 25.3474C51.2409 29.1138 51.1929 33.1064 50.0412 36.8461C48.8896 40.5858 46.6834 43.9138 43.6873 46.4307C40.6912 48.9477 37.0324 50.5466 33.1501 51.0358V35.9434H38.2334C38.9075 35.9434 39.554 35.6756 40.0307 35.1989C40.5073 34.7223 40.7751 34.0758 40.7751 33.4017C40.7751 32.7276 40.5073 32.0811 40.0307 31.6045C39.554 31.1278 38.9075 30.86 38.2334 30.86H33.1501V25.7767C33.1501 25.1026 33.4179 24.4561 33.8945 23.9795C34.3712 23.5028 35.0177 23.235 35.6918 23.235H36.9626C37.6367 23.235 38.2832 22.9672 38.7598 22.4906C39.2365 22.0139 39.5043 21.3675 39.5043 20.6934C39.5043 20.0193 39.2365 19.3728 38.7598 18.8961C38.2832 18.4195 37.6367 18.1517 36.9626 18.1517H35.6918C33.6695 18.1517 31.73 18.955 30.3001 20.385C28.8701 21.815 28.0668 23.7544 28.0668 25.7767V30.86H22.9834C22.3093 30.86 21.6629 31.1278 21.1862 31.6045C20.7096 32.0811 20.4418 32.7276 20.4418 33.4017C20.4418 34.0758 20.7096 34.7223 21.1862 35.1989C21.6629 35.6756 22.3093 35.9434 22.9834 35.9434H28.0668V51.0358C23.1527 50.4167 18.6337 48.0252 15.3578 44.3104C12.082 40.5956 10.2746 35.8129 10.2751 30.86ZM30.6084 56.2767C44.6461 56.2767 56.0251 44.8976 56.0251 30.86C56.0251 16.8224 44.6461 5.44336 30.6084 5.44336C16.5708 5.44336 5.19177 16.8224 5.19177 30.86C5.19177 44.8976 16.5708 56.2767 30.6084 56.2767Z" fill="black"/>
</g>
</g>
</svg>
