<svg width="62" height="62" viewBox="0 0 62 62" fill="none" xmlns="http://www.w3.org/2000/svg">
<g id="mingcute:social-x-line">
<g id="Group">
<path id="Vector" fill-rule="evenodd" clip-rule="evenodd" d="M50.314 12.201C50.5338 11.9497 50.7019 11.6575 50.8088 11.3412C50.9157 11.0249 50.9592 10.6906 50.9369 10.3575C50.9146 10.0243 50.8269 9.69886 50.6788 9.39962C50.5307 9.10037 50.3251 8.83323 50.0738 8.61344C49.8225 8.39365 49.5303 8.22551 49.214 8.11863C48.8977 8.01175 48.5634 7.96822 48.2303 7.99052C47.8971 8.01283 47.5717 8.10053 47.2724 8.24862C46.9732 8.39671 46.706 8.60229 46.4862 8.85363L33.4983 23.697L22.4751 9.00104C22.2384 8.68538 21.9314 8.42917 21.5785 8.25271C21.2255 8.07624 20.8364 7.98438 20.4418 7.98438H10.2751C9.80311 7.98438 9.34042 8.11582 8.93889 8.36397C8.53737 8.61213 8.21288 8.96719 8.00179 9.38937C7.7907 9.81156 7.70134 10.2842 7.74373 10.7543C7.78612 11.2244 7.95858 11.6734 8.24179 12.051L24.6025 33.8636L10.9029 49.5203C10.6831 49.7716 10.515 50.0638 10.4081 50.3801C10.3012 50.6964 10.2577 51.0307 10.28 51.3638C10.3023 51.697 10.39 52.0224 10.5381 52.3217C10.6862 52.6209 10.8918 52.8881 11.1431 53.1079C11.3944 53.3276 11.6866 53.4958 12.0029 53.6027C12.3192 53.7095 12.6535 53.7531 12.9866 53.7308C13.3198 53.7085 13.6452 53.6208 13.9445 53.4727C14.2437 53.3246 14.5109 53.119 14.7307 52.8677L27.7186 38.0218L38.7418 52.7177C38.9785 53.0334 39.2855 53.2896 39.6385 53.466C39.9914 53.6425 40.3805 53.7344 40.7751 53.7344H50.9418C51.4138 53.7344 51.8765 53.6029 52.278 53.3548C52.6795 53.1066 53.004 52.7516 53.2151 52.3294C53.4262 51.9072 53.5156 51.4346 53.4732 50.9645C53.4308 50.4943 53.2583 50.0453 52.9751 49.6677L36.6144 27.8551L50.314 12.201ZM42.046 48.651L15.3585 13.0677H19.171L45.8585 48.651H42.046Z" fill="black"/>
</g>
</g>
</svg>
