<svg width="58" height="58" viewBox="0 0 58 58" fill="none" xmlns="http://www.w3.org/2000/svg">
<path d="M26.1 46.4C26.1 46.4 23.2 46.4 23.2 43.5C23.2 40.6 26.1 31.9 37.7 31.9C49.3 31.9 52.2 40.6 52.2 43.5C52.2 46.4 49.2999 46.4 49.2999 46.4H26.1ZM37.7 29C40.0073 29 42.2202 28.0834 43.8518 26.4518C45.4833 24.8202 46.4 22.6074 46.4 20.3C46.4 17.9926 45.4833 15.7797 43.8518 14.1481C42.2202 12.5166 40.0073 11.6 37.7 11.6C35.3926 11.6 33.1797 12.5166 31.5481 14.1481C29.9166 15.7797 29 17.9926 29 20.3C29 22.6074 29.9166 24.8202 31.5481 26.4518C33.1797 28.0834 35.3926 29 37.7 29Z" fill="white"/>
<path fill-rule="evenodd" clip-rule="evenodd" d="M20.9284 46.4001C20.4978 45.4949 20.2827 44.5023 20.3 43.5001C20.3 39.5706 22.272 35.5251 25.9164 32.7121C24.0977 32.1518 22.2029 31.8778 20.3 31.9001C8.70005 31.9001 5.80005 40.6001 5.80005 43.5001C5.80005 46.4001 8.70005 46.4001 8.70005 46.4001H20.9284Z" fill="white"/>
<path d="M18.85 29C20.7728 29.0003 22.617 28.2368 23.9769 26.8774C25.3367 25.518 26.1009 23.674 26.1012 21.7512C26.1015 19.8284 25.338 17.9842 23.9786 16.6243C22.6192 15.2645 20.7752 14.5003 18.8524 14.5C16.9296 14.5 15.0855 15.2638 13.7259 16.6235C12.3663 17.9831 11.6024 19.8272 11.6024 21.75C11.6024 23.6728 12.3663 25.5169 13.7259 26.8765C15.0855 28.2362 16.9272 29 18.85 29Z" fill="white"/>
</svg>
